<svg aria-hidden="true" style="position: absolute; width: 0; height: 0; overflow: hidden;" version="1.1" xmlns="http://www.w3.org/2000/svg" xmlns:xlink="http://www.w3.org/1999/xlink">
<defs>
<symbol id="icon-x-close" viewBox="0 0 32 32">
<path d="M28.444 31.111c-0.711 0-1.422-0.178-1.956-0.711l-10.489-10.667-10.489 10.489c-1.067 1.067-2.667 1.067-3.733 0s-1.067-2.667 0-3.733l10.489-10.489-10.667-10.489c-1.067-1.067-1.067-2.667 0-3.733s2.667-1.067 3.733 0l10.667 10.489 10.489-10.489c1.067-1.067 2.667-1.067 3.733 0s1.067 2.667 0 3.733l-10.489 10.489 10.489 10.489c1.067 1.067 1.067 2.667 0 3.733-0.356 0.711-1.067 0.889-1.778 0.889z"></path>
</symbol>
</defs>
</svg>